<svg id="visual" viewBox="0 0 4000 600" width="4000" height="600" xmlns="http://www.w3.org/2000/svg" xmlns:xlink="http://www.w3.org/1999/xlink" version="1.1"><rect x="0" y="0" width="4000" height="600" fill="#001220"></rect><path d="M0 361L95.2 368.2C190.3 375.3 380.7 389.7 571.2 390.2C761.7 390.7 952.3 377.3 1142.8 382.2C1333.3 387 1523.7 410 1714.2 421.3C1904.7 432.7 2095.3 432.3 2285.8 434.7C2476.3 437 2666.7 442 2857.2 429.7C3047.7 417.3 3238.3 387.7 3428.8 378.3C3619.3 369 3809.7 380 3904.8 385.5L4000 391L4000 601L3904.8 601C3809.7 601 3619.3 601 3428.8 601C3238.3 601 3047.7 601 2857.2 601C2666.7 601 2476.3 601 2285.8 601C2095.3 601 1904.7 601 1714.2 601C1523.7 601 1333.3 601 1142.8 601C952.3 601 761.7 601 571.2 601C380.7 601 190.3 601 95.2 601L0 601Z" fill="#a94c08"></path><path d="M0 414L95.2 411.7C190.3 409.3 380.7 404.7 571.2 402.5C761.7 400.3 952.3 400.7 1142.8 406.2C1333.3 411.7 1523.7 422.3 1714.2 435.3C1904.7 448.3 2095.3 463.7 2285.8 471.5C2476.3 479.3 2666.7 479.7 2857.2 469.7C3047.7 459.7 3238.3 439.3 3428.8 432.2C3619.3 425 3809.7 431 3904.8 434L4000 437L4000 601L3904.8 601C3809.7 601 3619.3 601 3428.8 601C3238.3 601 3047.7 601 2857.2 601C2666.7 601 2476.3 601 2285.8 601C2095.3 601 1904.7 601 1714.2 601C1523.7 601 1333.3 601 1142.8 601C952.3 601 761.7 601 571.2 601C380.7 601 190.3 601 95.2 601L0 601Z" fill="#cf791f"></path><path d="M0 487L95.2 485.8C190.3 484.7 380.7 482.3 571.2 479C761.7 475.7 952.3 471.3 1142.8 466.5C1333.3 461.7 1523.7 456.3 1714.2 463.5C1904.7 470.7 2095.3 490.3 2285.8 490.8C2476.3 491.3 2666.7 472.7 2857.2 465C3047.7 457.3 3238.3 460.7 3428.8 465.5C3619.3 470.3 3809.7 476.7 3904.8 479.8L4000 483L4000 601L3904.8 601C3809.7 601 3619.3 601 3428.8 601C3238.3 601 3047.7 601 2857.2 601C2666.7 601 2476.3 601 2285.8 601C2095.3 601 1904.7 601 1714.2 601C1523.7 601 1333.3 601 1142.8 601C952.3 601 761.7 601 571.2 601C380.7 601 190.3 601 95.2 601L0 601Z" fill="#e5962d"></path><path d="M0 508L95.2 509.2C190.3 510.3 380.7 512.7 571.2 511.7C761.7 510.7 952.3 506.3 1142.8 500.8C1333.3 495.3 1523.7 488.7 1714.2 488.3C1904.7 488 2095.3 494 2285.8 495.8C2476.3 497.7 2666.7 495.3 2857.2 496.5C3047.7 497.7 3238.3 502.3 3428.8 505.5C3619.3 508.7 3809.7 510.3 3904.8 511.2L4000 512L4000 601L3904.8 601C3809.7 601 3619.3 601 3428.8 601C3238.3 601 3047.7 601 2857.2 601C2666.7 601 2476.3 601 2285.8 601C2095.3 601 1904.7 601 1714.2 601C1523.7 601 1333.3 601 1142.8 601C952.3 601 761.7 601 571.2 601C380.7 601 190.3 601 95.2 601L0 601Z" fill="#cf791f"></path><path d="M0 571L95.2 568.3C190.3 565.7 380.7 560.3 571.2 558.3C761.7 556.3 952.3 557.7 1142.8 557.3C1333.3 557 1523.7 555 1714.2 553.2C1904.7 551.3 2095.3 549.7 2285.8 548.7C2476.3 547.7 2666.7 547.3 2857.2 549C3047.7 550.7 3238.3 554.3 3428.8 557.2C3619.3 560 3809.7 562 3904.8 563L4000 564L4000 601L3904.8 601C3809.7 601 3619.3 601 3428.8 601C3238.3 601 3047.7 601 2857.2 601C2666.7 601 2476.3 601 2285.8 601C2095.3 601 1904.7 601 1714.2 601C1523.7 601 1333.3 601 1142.8 601C952.3 601 761.7 601 571.2 601C380.7 601 190.3 601 95.2 601L0 601Z" fill="#a94c08"></path></svg>