<svg id="visual" viewBox="0 0 900 600" width="900" height="600" xmlns="http://www.w3.org/2000/svg" xmlns:xlink="http://www.w3.org/1999/xlink" version="1.1"><rect x="0" y="0" width="900" height="600" fill="#25221f"></rect><path d="M0 350L129 351L257 433L386 405L514 428L643 432L771 378L900 413L900 601L771 601L643 601L514 601L386 601L257 601L129 601L0 601Z" fill="#f5730a"></path><path d="M0 424L129 476L257 398L386 470L514 445L643 468L771 433L900 415L900 601L771 601L643 601L514 601L386 601L257 601L129 601L0 601Z" fill="#da5b09"></path><path d="M0 483L129 478L257 492L386 444L514 499L643 469L771 503L900 494L900 601L771 601L643 601L514 601L386 601L257 601L129 601L0 601Z" fill="#be4407"></path><path d="M0 498L129 528L257 527L386 481L514 515L643 483L771 529L900 512L900 601L771 601L643 601L514 601L386 601L257 601L129 601L0 601Z" fill="#a32d04"></path><path d="M0 531L129 559L257 565L386 565L514 559L643 571L771 529L900 535L900 601L771 601L643 601L514 601L386 601L257 601L129 601L0 601Z" fill="#871400"></path></svg>