<svg id="visual" viewBox="0 0 900 600" width="900" height="600" xmlns="http://www.w3.org/2000/svg" xmlns:xlink="http://www.w3.org/1999/xlink" version="1.1"><rect x="0" y="0" width="900" height="600" fill="#001220"></rect><defs><linearGradient id="grad1_0" x1="33.3%" y1="0%" x2="100%" y2="100%"><stop offset="20%" stop-color="#001220" stop-opacity="1"></stop><stop offset="80%" stop-color="#001220" stop-opacity="1"></stop></linearGradient></defs><defs><linearGradient id="grad2_0" x1="0%" y1="0%" x2="66.7%" y2="100%"><stop offset="20%" stop-color="#001220" stop-opacity="1"></stop><stop offset="80%" stop-color="#001220" stop-opacity="1"></stop></linearGradient></defs><g transform="translate(900, 0)"><path d="M0 486.7C-63.5 480 -127 473.2 -186.3 449.7C-245.5 426.2 -300.4 386.1 -336.6 336.6C-372.7 287.1 -390.1 228.3 -412.1 170.7C-434 113 -460.4 56.5 -486.7 0L0 0Z" fill="#ff9900"></path></g><g transform="translate(0, 600)"><path d="M0 -486.7C54 -453.5 108.1 -420.3 164.9 -398.2C221.8 -376.1 281.4 -365 332.3 -332.3C383.2 -299.6 425.4 -245.3 449.7 -186.3C474 -127.3 480.4 -63.6 486.7 0L0 0Z" fill="#ff9900"></path></g></svg>