<svg id="visual" viewBox="0 0 900 600" width="900" height="600" xmlns="http://www.w3.org/2000/svg" xmlns:xlink="http://www.w3.org/1999/xlink" version="1.1"><rect x="0" y="0" width="900" height="600" fill="#001220"></rect><defs><linearGradient id="grad1_0" x1="33.3%" y1="0%" x2="100%" y2="100%"><stop offset="20%" stop-color="#ff6a3d" stop-opacity="1"></stop><stop offset="80%" stop-color="#ff6a3d" stop-opacity="1"></stop></linearGradient></defs><defs><linearGradient id="grad1_1" x1="33.3%" y1="0%" x2="100%" y2="100%"><stop offset="20%" stop-color="#ff6a3d" stop-opacity="1"></stop><stop offset="80%" stop-color="#7d356f" stop-opacity="1"></stop></linearGradient></defs><defs><linearGradient id="grad1_2" x1="33.3%" y1="0%" x2="100%" y2="100%"><stop offset="20%" stop-color="#001220" stop-opacity="1"></stop><stop offset="80%" stop-color="#7d356f" stop-opacity="1"></stop></linearGradient></defs><defs><linearGradient id="grad2_0" x1="0%" y1="0%" x2="66.7%" y2="100%"><stop offset="20%" stop-color="#ff6a3d" stop-opacity="1"></stop><stop offset="80%" stop-color="#ff6a3d" stop-opacity="1"></stop></linearGradient></defs><defs><linearGradient id="grad2_1" x1="0%" y1="0%" x2="66.7%" y2="100%"><stop offset="20%" stop-color="#7d356f" stop-opacity="1"></stop><stop offset="80%" stop-color="#ff6a3d" stop-opacity="1"></stop></linearGradient></defs><defs><linearGradient id="grad2_2" x1="0%" y1="0%" x2="66.7%" y2="100%"><stop offset="20%" stop-color="#7d356f" stop-opacity="1"></stop><stop offset="80%" stop-color="#001220" stop-opacity="1"></stop></linearGradient></defs><g transform="translate(900, 0)"><path d="M0 378.6C-65.8 368.5 -131.7 358.3 -189.3 327.9C-246.9 297.4 -296.3 246.5 -326.5 188.5C-356.7 130.5 -367.6 65.2 -378.6 0L0 0Z" fill="#2d2a53"></path><path d="M0 252.4C-43.9 245.6 -87.8 238.9 -126.2 218.6C-164.6 198.3 -197.5 164.4 -217.7 125.7C-237.8 87 -245.1 43.5 -252.4 0L0 0Z" fill="#cd3d67"></path><path d="M0 126.2C-21.9 122.8 -43.9 119.4 -63.1 109.3C-82.3 99.1 -98.8 82.2 -108.8 62.8C-118.9 43.5 -122.5 21.7 -126.2 0L0 0Z" fill="#ff6a3d"></path></g><g transform="translate(0, 600)"><path d="M0 -378.6C67.3 -369.3 134.7 -360.1 189.3 -327.9C243.9 -295.6 285.8 -240.5 315.2 -182C344.7 -123.5 361.6 -61.8 378.6 0L0 0Z" fill="#2d2a53"></path><path d="M0 -252.4C44.9 -246.2 89.8 -240.1 126.2 -218.6C162.6 -197.1 190.5 -160.3 210.2 -121.3C229.8 -82.4 241.1 -41.2 252.4 0L0 0Z" fill="#cd3d67"></path><path d="M0 -126.2C22.4 -123.1 44.9 -120 63.1 -109.3C81.3 -98.5 95.3 -80.2 105.1 -60.7C114.9 -41.2 120.5 -20.6 126.2 0L0 0Z" fill="#ff6a3d"></path></g></svg>